<mxfile host="app.diagrams.net" modified="2020-08-21T01:05:34.769Z" agent="5.0 (Windows)" etag="rlzE_7Ij28bi_dbLfH5M" version="13.6.4" type="github">
  <diagram id="XvDDUhfcHGGdsUevFzbr" name="Page-1">
    <mxGraphModel dx="1422" dy="763" grid="1" gridSize="10" guides="1" tooltips="1" connect="1" arrows="1" fold="1" page="1" pageScale="1" pageWidth="850" pageHeight="1100" math="0" shadow="0">
      <root>
        <mxCell id="0" />
        <mxCell id="1" parent="0" />
        <mxCell id="p5g8b---k2CZits1s5pr-1" value="" style="rounded=0;whiteSpace=wrap;html=1;" vertex="1" parent="1">
          <mxGeometry x="190" y="170" width="160" height="100" as="geometry" />
        </mxCell>
      </root>
    </mxGraphModel>
  </diagram>
</mxfile>
